<svg xmlns="http://www.w3.org/2000/svg" width="818.003" height="836.126" viewBox="0 0 818.003 836.126">
  <g id="door-key" transform="translate(-9.062)">
    <path id="Path_95" data-name="Path 95" d="M827.065,263.7a263.7,263.7,0,1,0-494.9,126.9L16.465,706c-7.3,7.3-9.6,18.4-5.1,28.9a18.421,18.421,0,0,0,4.1,5.9l70.7,70.7a20.168,20.168,0,0,0,5.9,4.1c10.5,4.5,21.6,2.3,28.9-5.1l43.7-43.7,62.9,62.9a20.173,20.173,0,0,0,5.9,4.1c10.5,4.5,21.6,2.3,28.9-5.1l69.7-69.7a20.174,20.174,0,0,0,4.1-5.9c4.5-10.5,2.3-21.6-5.1-28.9l-61.9-61.9L436.364,495a263.734,263.734,0,0,0,390.7-231.3Zm-171.3,92.5a130.971,130.971,0,1,1,38.2-92.5A128.716,128.716,0,0,1,655.766,356.2Z" fill="#fff"/>
  </g>
</svg>
