<svg xmlns="http://www.w3.org/2000/svg" width="14.443" height="15.791" viewBox="0 0 14.443 15.791">
  <g id="Group_1533" data-name="Group 1533" transform="translate(-183.161 -1094.383)">
    <path id="Path_3" data-name="Path 3" d="M14.116,18.038a1.423,1.423,0,0,1-1.01-.413L7.414,11.935a1.429,1.429,0,1,1,2.02-2.02l4.681,4.709,4.7-4.524a1.423,1.423,0,1,1,1.963,2.049L15.083,17.64A1.423,1.423,0,0,1,14.116,18.038Z" transform="matrix(-1, 0.017, -0.017, -1, 204.764, 1119.297)" fill="#c6c6c6"/>
    <path id="Path_3-2" data-name="Path 3" d="M14.116,18.038a1.423,1.423,0,0,1-1.01-.413L7.414,11.935a1.429,1.429,0,1,1,2.02-2.02l4.681,4.709,4.7-4.524a1.423,1.423,0,1,1,1.963,2.049L15.083,17.64A1.423,1.423,0,0,1,14.116,18.038Z" transform="matrix(-1, 0.017, -0.017, -1, 204.764, 1112.297)" fill="#c6c6c6"/>
  </g>
</svg>
