<svg id="Layer_1" data-name="Layer 1" xmlns="http://www.w3.org/2000/svg" viewBox="0 0 552.98 113.5"><defs><style>.cls-1{fill:#00a3fc;}.cls-2{fill:#fff;}</style></defs><g id="_00a3fcff" data-name="#00a3fcff"><path class="cls-1" d="M210.51,6.62h10V120.1h-10Q210.5,63.37,210.51,6.62Z" transform="translate(-7.57 -6.61)"/><path class="cls-1" d="M7.57,68.9Q36.22,40.13,65,11.43C75.88,22.25,86.61,33.24,97.61,44q16.14-16.38,32.5-32.54c19.1,19.17,38.18,38.38,57.43,57.4q-23.34,23.42-46.72,46.77c-8.34-8.41-16.57-16.92-24.85-25.38,7.43-7.38,14.8-14.84,22.23-22.22-2.48-2.83-5.24-5.4-7.89-8.06-10.86,11-21.88,21.87-32.76,32.86C86.56,81.88,75.64,70.9,64.68,60c-2.68,2.63-5.41,5.21-7.9,8q11.4,11.36,22.78,22.74c-8.44,8.3-16.85,16.64-25.31,24.93C38.66,100.1,23.15,84.46,7.57,68.9m16-.09c10.81,10.89,21.6,21.8,32.56,32.54,2.59-2.66,5.19-5.3,7.87-7.86Q51.74,81.16,39.42,68.93c8.49-8.57,17-17.16,25.61-25.57C75.88,54.21,86.65,65.13,97.6,75.88,108.29,64.94,119.26,54.27,130,43.33c8.64,8.39,17,17.05,25.61,25.48-8.07,8.32-16.39,16.4-24.53,24.66q4,3.94,7.95,7.94c10.89-10.77,21.59-21.73,32.47-32.5C157.71,55,143.77,41.35,130.11,27.4Q113.78,43.63,97.55,60,81.16,43.82,65,27.44C51.12,41.18,37.41,55.08,23.53,68.81Z" transform="translate(-7.57 -6.61)"/></g><g id="_000000ff" data-name="#000000ff"><path class="cls-2" d="M258.13,34.19c5.27-2.26,12.07-.44,15.12,4.52,7.46,13,14.83,26.08,21.94,39.29C302.37,65,309.5,51.9,317,39.06a12.17,12.17,0,0,1,17.49-3.53c3.46,2.4,4.33,6.74,5.53,10.5,5,18,10.4,35.86,15.33,53.87-6.7.5-13.38.08-20.09,0C332.1,88.63,329,77.32,326.14,66c-.71-2-.26-4.61-2-6.11-5.47,11.45-11.53,22.6-17.54,33.77-1.5,3-3.78,5.89-7.05,7.13-5.24,1.09-11.8.82-14.83-4.36-7-12.08-13.12-24.71-19.77-37-2.87,13.66-7,27-10.45,40.52-6.5.85-13-.57-19.51.43a21.27,21.27,0,0,1,1.12-6.06c5.35-17.54,10.27-35.22,15.63-52.76A11.83,11.83,0,0,1,258.13,34.19Z" transform="translate(-7.57 -6.61)"/><path class="cls-2" d="M400.73,40a15.25,15.25,0,0,1,13.34-6.73c4.87,0,9.31,2.84,12,6.78Q446.8,70,467.42,99.93c-25.43.18-50.81.46-76.24.06,3.95-5.59,8-11.09,12.05-16.61,9.35-.74,18.72.13,28.08-.06-6-8.93-11.95-17.92-18.27-26.64-10.35,14.16-20.21,28.69-30.5,42.89-8,1.42-16.24.27-24.34.41Q379.49,70,400.73,40Z" transform="translate(-7.57 -6.61)"/><path class="cls-2" d="M480.55,39.54a31.27,31.27,0,0,1,17.43-5q30.25,0,60.5,0c-4.16,5.76-8.3,11.58-13,16.91-14.83-.17-29.67,0-44.5-.08-2.53.05-5.75,0-7.29,2.42A4.64,4.64,0,0,0,498,60.47c14,.35,28-.13,42.06.23,7.36.33,15.9,3,19.13,10.26,1.64,2.77,1.4,6.05,1.39,9.15a18,18,0,0,1-9.46,16.2c-5.49,3.07-11.9,3.57-18.06,3.82-20.53,0-41.06.22-61.58-.2,4.13-5.58,8.32-11.14,12.75-16.49,17.62-1,35.28.43,52.89-.64,4.27,0,5.25-6.78,1.61-8.41-1.42-.81-3.09-.68-4.64-.75-12.67,0-25.34.08-38,0-7.49-.23-16-2.52-20.11-9.32C471.7,56.35,473,45.05,480.55,39.54Z" transform="translate(-7.57 -6.61)"/></g></svg>