<?xml version="1.0" encoding="utf-8"?>
<!-- Generator: Adobe Illustrator 25.1.0, SVG Export Plug-In . SVG Version: 6.00 Build 0)  -->
<svg version="1.1" id="Layer_1" xmlns="http://www.w3.org/2000/svg" xmlns:xlink="http://www.w3.org/1999/xlink" x="0px" y="0px"
	 viewBox="0 0 750 918" style="enable-background:new 0 0 750 918;" xml:space="preserve">
<style type="text/css">
	.st0{fill:#00A3FC;}
</style>
<g>
	<path class="st0" d="M1468.8,195.1c22.1,0,44.2,0,66.2,0c0,250.8,0,501.5,0,752.3c-22.1,0-44.2,0-66.2,0
		C1468.8,696.8,1468.8,446,1468.8,195.1z"/>
	<g>
		<path class="st0" d="M153.4,608.1C280,481,406.9,354.2,533.9,227c72.5,71.8,143.5,144.6,216.5,215.6
			c71.4-72.5,143.3-144,215.5-215.8c126.6,127.2,253,254.5,380.7,380.6c-103.2,103.5-206.7,206.5-309.6,310
			c-55.4-55.7-109.9-112.1-164.7-168.2c49.3-49,98.2-98.3,147.3-147.3c-16.4-18.8-34.7-35.9-52.3-53.5
			c-71.9,73-145.1,144.9-217.2,217.9C677.2,694,604.8,621.2,532.2,548.6c-17.8,17.4-35.9,34.5-52.4,53.3
			c50.4,50.2,100.7,100.4,150.9,150.8c-55.9,55-111.8,110.2-167.8,165.3C359.5,814.9,256.7,711.3,153.4,608.1z M259.1,607.4
			c71.6,72.3,143.2,144.6,215.8,215.8c17.3-17.6,34.3-35.2,52.1-52.1c-54-54.5-108.3-108.7-162.7-162.8
			c56.2-56.8,112.5-113.7,169.7-169.6c71.9,71.9,143.3,144.4,216,215.6c70.9-72.5,143.5-143.2,214.4-215.8
			c57.3,55.5,112.8,113,169.7,168.9c-53.5,55.2-108.7,108.7-162.7,163.5c17.6,17.4,35.2,35,52.8,52.6
			c72.3-71.4,143.2-144,215.3-215.5c-90.9-91.9-183.4-182.7-273.9-275.1c-72.2,71.8-144.1,143.8-215.7,216.2
			c-72.5-71.6-144.2-143.7-215.8-215.8C442,424.2,351.2,516.5,259.1,607.4z"/>
	</g>
</g>
<g>
	<path d="M310.6,169.5c3.9-1.7,8.9-0.3,11.2,3.3c5.5,9.6,10.9,19.2,16.1,29.1c5.3-9.6,10.5-19.2,16.1-28.8c2.5-4.4,8.9-5.7,12.9-2.7
		c2.5,1.7,3.2,4.9,4.1,7.7c3.7,13.3,7.7,26.5,11.3,39.7c-4.9,0.4-9.9,0-14.8,0c-2.3-8.3-4.5-16.7-6.7-25.1c-0.5-1.5-0.1-3.5-1.5-4.5
		c-4,8.4-8.5,16.7-12.9,24.9c-1.1,2.3-2.8,4.4-5.2,5.2c-3.9,0.8-8.7,0.7-10.9-3.2c-5.2-8.9-9.7-18.3-14.5-27.3
		c-2.1,10.1-5.2,20-7.7,29.9c-4.8,0.7-9.6-0.4-14.4,0.3c0-1.5,0.4-3.1,0.8-4.5c4-12.9,7.6-26,11.6-38.9
		C306.6,172.6,308.3,170.6,310.6,169.5z"/>
	<path d="M415.8,173.9c2.1-3.2,6-5.2,9.9-4.9c3.6,0,6.9,2.1,8.9,5.1c10.1,14.7,20.4,29.5,30.5,44.1c-18.8,0.1-37.5,0.4-56.3,0
		c2.9-4.1,5.9-8.1,8.9-12.3c6.9-0.5,13.9,0.1,20.7,0c-4.4-6.5-8.8-13.2-13.5-19.6c-7.6,10.4-14.9,21.2-22.5,31.6
		c-5.9,1.1-12,0.1-18,0.3C394.9,203.4,405.4,188.6,415.8,173.9z"/>
	<path d="M474.7,173.5c3.7-2.5,8.4-3.7,12.8-3.7c14.9,0,29.7,0,44.7,0c-3.1,4.3-6.1,8.5-9.6,12.5c-10.9-0.1-21.9,0-32.8,0
		c-1.9,0-4.3,0-5.3,1.7c-1.2,2.3,0.7,5.1,3.2,4.9c10.4,0.3,20.7-0.1,31.1,0.1c5.5,0.3,11.7,2.1,14.1,7.6c1.2,2,1.1,4.4,1.1,6.8
		c0.1,4.8-2.7,9.7-6.9,12c-4,2.3-8.8,2.7-13.3,2.8c-15.2,0-30.3,0.1-45.5-0.1c3.1-4.1,6.1-8.3,9.5-12.1c13.1-0.8,26,0.3,39.1-0.5
		c3.2,0,3.9-5.1,1.2-6.3c-1.1-0.5-2.3-0.5-3.5-0.5c-9.3,0-18.7,0-28,0c-5.5-0.1-11.7-1.9-14.8-6.9
		C468.2,185.9,469.2,177.5,474.7,173.5z"/>
</g>
</svg>
