<?xml version="1.0" encoding="utf-8"?>
<!-- Generator: Adobe Illustrator 25.1.0, SVG Export Plug-In . SVG Version: 6.00 Build 0)  -->
<svg version="1.1" id="Layer_1" xmlns="http://www.w3.org/2000/svg" xmlns:xlink="http://www.w3.org/1999/xlink" x="0px" y="0px"
	 viewBox="0 0 750 750" style="enable-background:new 0 0 750 750;" xml:space="preserve">
<style type="text/css">
	.st0{fill:#00A3FC;}
	.st1{fill:#FFFFFF;}
</style>
<g id="_x23_ffffffff">
</g>
<g id="_x23_00a3fcff">
	<path class="st0" d="M279.5,306.5c3.3,0,6.6,0,10,0c0,37.8,0,75.6,0,113.5c-3.3,0-6.7,0-10,0C279.5,382.2,279.5,344.3,279.5,306.5z
		"/>
	<path class="st0" d="M76.6,368.8c19.1-19.2,38.3-38.3,57.4-57.5c10.9,10.8,21.6,21.8,32.6,32.5c10.8-10.9,21.6-21.7,32.5-32.5
		c19.1,19.2,38.2,38.4,57.4,57.4c-15.6,15.6-31.2,31.2-46.7,46.8c-8.3-8.4-16.6-16.9-24.9-25.4c7.4-7.4,14.8-14.8,22.2-22.2
		c-2.5-2.8-5.2-5.4-7.9-8.1c-10.9,11-21.9,21.9-32.8,32.9c-11-10.9-21.9-21.9-32.9-32.8c-2.7,2.6-5.4,5.2-7.9,8
		c7.6,7.6,15.2,15.1,22.8,22.7c-8.4,8.3-16.8,16.6-25.3,24.9C107.7,400,92.2,384.4,76.6,368.8 M92.5,368.7
		c10.8,10.9,21.6,21.8,32.6,32.5c2.6-2.7,5.2-5.3,7.9-7.9c-8.2-8.2-16.3-16.4-24.5-24.6c8.5-8.6,17-17.2,25.6-25.6
		c10.9,10.9,21.6,21.8,32.6,32.5c10.7-10.9,21.7-21.6,32.3-32.5c8.6,8.4,17,17,25.6,25.5c-8.1,8.3-16.4,16.4-24.5,24.7
		c2.7,2.6,5.3,5.3,7.9,7.9c10.9-10.8,21.6-21.7,32.5-32.5c-13.7-13.9-27.7-27.6-41.3-41.5c-10.9,10.8-21.8,21.7-32.6,32.6
		c-10.9-10.8-21.8-21.7-32.6-32.6C120.1,341.1,106.4,355,92.5,368.7z"/>
</g>
<g id="_x23_000000ff">
	<path class="st1" d="M327.1,334.1c5.3-2.3,12.1-0.4,15.1,4.5c7.5,13,14.8,26.1,21.9,39.3c7.2-13,14.3-26.1,21.8-38.9
		c3.4-6,12-7.7,17.5-3.5c3.5,2.4,4.3,6.7,5.5,10.5c5,18,10.4,35.9,15.3,53.9c-6.7,0.5-13.4,0.1-20.1,0c-3.2-11.3-6.2-22.6-9.1-33.9
		c-0.7-2-0.3-4.6-2-6.1c-5.5,11.5-11.5,22.6-17.5,33.8c-1.5,3-3.8,5.9-7.1,7.1c-5.2,1.1-11.8,0.8-14.8-4.4
		c-7-12.1-13.1-24.7-19.8-37c-2.9,13.7-7,27-10.5,40.5c-6.5,0.9-13-0.6-19.5,0.4c0-2.1,0.5-4.1,1.1-6.1
		c5.3-17.5,10.3-35.2,15.6-52.8C321.7,338.2,324.1,335.5,327.1,334.1z"/>
	<path class="st1" d="M469.7,339.9c3-4.3,8-7.1,13.3-6.7c4.9,0,9.3,2.8,12,6.8c13.8,19.9,27.6,39.9,41.3,59.9
		c-25.4,0.2-50.8,0.5-76.2,0.1c4-5.6,8-11.1,12.1-16.6c9.3-0.7,18.7,0.1,28.1-0.1c-6-8.9-12-17.9-18.3-26.6
		c-10.4,14.2-20.2,28.7-30.5,42.9c-8,1.4-16.2,0.3-24.3,0.4C441.4,379.9,455.5,359.9,469.7,339.9z"/>
	<path class="st1" d="M549.5,339.4c5.1-3.4,11.3-5.1,17.4-5c20.2,0,40.3,0,60.5,0c-4.2,5.8-8.3,11.6-13,16.9
		c-14.8-0.2-29.7,0-44.5-0.1c-2.5,0-5.8,0-7.3,2.4c-1.7,3.1,0.8,6.8,4.3,6.7c14,0.4,28-0.1,42.1,0.2c7.4,0.3,15.9,3,19.1,10.3
		c1.6,2.8,1.4,6,1.4,9.1c0.2,6.6-3.6,13.1-9.5,16.2c-5.5,3.1-11.9,3.6-18.1,3.8c-20.5,0-41.1,0.2-61.6-0.2
		c4.1-5.6,8.3-11.1,12.8-16.5c17.6-1,35.3,0.4,52.9-0.6c4.3,0,5.2-6.8,1.6-8.4c-1.4-0.8-3.1-0.7-4.6-0.8c-12.7,0-25.3,0.1-38,0
		c-7.5-0.2-16-2.5-20.1-9.3C540.7,356.2,542,344.9,549.5,339.4z"/>
</g>
</svg>
