<?xml version="1.0" encoding="UTF-8" ?>
<!DOCTYPE svg PUBLIC "-//W3C//DTD SVG 1.1//EN" "http://www.w3.org/Graphics/SVG/1.1/DTD/svg11.dtd">
<svg width="750pt" height="750pt" viewBox="0 0 750 750" version="1.1" xmlns="http://www.w3.org/2000/svg">
<g id="#ffffffff">
</g>
<g id="#00a3fcff">
<path fill="#00a3fc" opacity="1.00" d=" M 279.51 306.51 C 282.83 306.50 286.16 306.50 289.50 306.51 C 289.50 344.34 289.50 382.16 289.50 419.99 C 286.16 420.00 282.83 420.00 279.51 420.00 C 279.50 382.17 279.50 344.34 279.51 306.51 Z" />
<path fill="#00a3fc" opacity="1.00" d=" M 76.57 368.79 C 95.67 349.61 114.83 330.48 133.96 311.32 C 144.88 322.14 155.61 333.13 166.61 343.85 C 177.37 332.93 188.23 322.11 199.11 311.31 C 218.21 330.48 237.29 349.69 256.54 368.71 C 240.98 384.32 225.37 399.87 209.82 415.48 C 201.48 407.07 193.25 398.56 184.97 390.10 C 192.40 382.72 199.77 375.26 207.20 367.88 C 204.72 365.05 201.96 362.48 199.31 359.82 C 188.45 370.83 177.43 381.69 166.55 392.68 C 155.56 381.77 144.64 370.79 133.68 359.85 C 131.00 362.48 128.27 365.06 125.78 367.88 C 133.38 375.45 140.97 383.02 148.56 390.62 C 140.12 398.92 131.71 407.26 123.25 415.55 C 107.66 399.99 92.15 384.35 76.57 368.79 M 92.53 368.70 C 103.34 379.59 114.13 390.50 125.09 401.24 C 127.68 398.58 130.28 395.94 132.96 393.38 C 124.81 385.16 116.63 376.98 108.42 368.82 C 116.91 360.25 125.38 351.66 134.03 343.25 C 144.88 354.10 155.65 365.02 166.60 375.77 C 177.29 364.83 188.26 354.16 198.95 343.22 C 207.59 351.61 215.97 360.27 224.56 368.70 C 216.49 377.02 208.17 385.10 200.03 393.36 C 202.69 395.99 205.34 398.64 207.98 401.30 C 218.87 390.53 229.57 379.57 240.45 368.80 C 226.71 354.92 212.77 341.24 199.11 327.29 C 188.22 338.11 177.35 348.97 166.55 359.89 C 155.62 349.10 144.80 338.22 133.99 327.33 C 120.12 341.07 106.41 354.97 92.53 368.70 Z" />
</g>
<g id="#000000ff">
<path fill="#000000" opacity="1.00" d=" M 327.13 334.08 C 332.40 331.82 339.20 333.64 342.25 338.60 C 349.71 351.61 357.08 364.68 364.19 377.89 C 371.37 364.87 378.50 351.79 386.00 338.95 C 389.39 332.96 398.05 331.23 403.49 335.42 C 406.95 337.82 407.82 342.16 409.02 345.92 C 414.03 363.90 419.42 381.78 424.35 399.79 C 417.65 400.29 410.97 399.87 404.26 399.80 C 401.10 388.52 398.03 377.21 395.14 365.85 C 394.43 363.85 394.88 361.24 393.17 359.74 C 387.70 371.19 381.64 382.34 375.63 393.51 C 374.13 396.55 371.85 399.40 368.58 400.64 C 363.34 401.73 356.78 401.46 353.75 396.28 C 346.71 384.20 340.63 371.57 333.98 359.27 C 331.11 372.93 326.99 386.28 323.53 399.79 C 317.03 400.64 310.50 399.22 304.02 400.22 C 304.05 398.15 304.52 396.13 305.14 394.16 C 310.49 376.62 315.41 358.94 320.77 341.40 C 321.72 338.19 324.09 335.47 327.13 334.08 Z" />
<path fill="#000000" opacity="1.00" d=" M 469.73 339.91 C 472.70 335.64 477.78 332.78 483.07 333.18 C 487.94 333.13 492.38 336.02 495.09 339.96 C 508.90 359.89 522.68 379.84 536.42 399.82 C 510.99 400.00 485.61 400.28 460.18 399.88 C 464.13 394.29 468.20 388.79 472.23 383.27 C 481.58 382.53 490.95 383.40 500.31 383.21 C 494.30 374.28 488.36 365.29 482.04 356.57 C 471.69 370.73 461.83 385.26 451.54 399.46 C 443.54 400.88 435.30 399.73 427.20 399.87 C 441.39 379.89 455.52 359.87 469.73 339.91 Z" />
<path fill="#000000" opacity="1.00" d=" M 549.55 339.43 C 554.64 336.00 560.87 334.37 566.98 334.38 C 587.15 334.37 607.31 334.35 627.48 334.39 C 623.32 340.15 619.18 345.97 614.48 351.30 C 599.65 351.13 584.81 351.28 569.98 351.22 C 567.45 351.27 564.23 351.23 562.69 353.64 C 561.02 356.71 563.53 360.46 566.95 360.36 C 580.96 360.71 594.99 360.23 609.01 360.59 C 616.37 360.92 624.91 363.57 628.14 370.85 C 629.78 373.62 629.54 376.90 629.53 380.00 C 629.75 386.59 625.92 393.14 620.07 396.20 C 614.58 399.27 608.17 399.77 602.01 400.02 C 581.48 400.05 560.95 400.24 540.43 399.82 C 544.56 394.24 548.75 388.68 553.18 383.33 C 570.80 382.30 588.46 383.76 606.07 382.69 C 610.34 382.69 611.32 375.91 607.68 374.28 C 606.26 373.47 604.59 373.60 603.04 373.53 C 590.37 373.53 577.70 373.61 565.03 373.49 C 557.54 373.26 549.05 370.97 544.92 364.17 C 540.70 356.24 542.00 344.94 549.55 339.43 Z" />
</g>
</svg>
